<svg id="Layer_1" data-name="Layer 1" xmlns="http://www.w3.org/2000/svg" viewBox="0 0 529.16 127.07" width="170"><defs><style>
	@font-face {
	font-family: Poppins-SemiBold;
	src: url('../fonts/Poppins-SemiBold.ttf') format('truetype');
	font-weight: 600;
	font-style: normal;
	}
	.cls-1{fill:#93c9fe;}.cls-2{fill:#0078e8;}.cls-3{font-size:77.66px;fill:#333;font-family:Poppins-SemiBold, Poppins;font-weight:600;}</style></defs><path class="cls-1" d="M75.79,28.17a70.58,70.58,0,0,1-9.67-7.54c-3.8-3.4-5.09-5.09-10.26-10.42-2-2.11-5-5.05-8.58-8.54a2.34,2.34,0,0,0-2.63-.32l-28,16.13a2.3,2.3,0,0,0-1,2.59q2.68,8.25,5.39,16.51c2.11-.51,3.89-1,6.38-1.8,1.07-.36,2.21-.73,3.41-1.16Q29.12,28.28,27.39,23L44.74,13c3.44,4.16,6.53,7.5,8.89,10a90.92,90.92,0,0,0,10,9.35,74.79,74.79,0,0,0,8.52,5.81,71.16,71.16,0,0,0,14.23,6.26,92.65,92.65,0,0,1,2.41-10A61.34,61.34,0,0,1,75.79,28.17Z"/><path class="cls-2" d="M38.81,35a70,70,0,0,1-11.36,4.6c-4.84,1.59-6.95,1.87-14.15,3.68-2.85.71-6.85,1.76-11.69,3.16A2.34,2.34,0,0,0,0,48.57q0,16.16,0,32.3A2.31,2.31,0,0,0,1.75,83l17,3.58c.61-2.09,1.09-3.85,1.63-6.42.23-1.11.47-2.28.7-3.53l-11-2.34.06-20c5.33-.89,9.77-1.9,13.07-2.72a90.35,90.35,0,0,0,13.1-4,72.5,72.5,0,0,0,9.28-4.48A71.46,71.46,0,0,0,58.15,34a95.39,95.39,0,0,1-7.42-7.07A61.7,61.7,0,0,1,38.81,35Z"/><path class="cls-1" d="M26.33,70.32a70.14,70.14,0,0,1-1.69,12.14c-1,5-1.86,7-3.9,14.09-.8,2.83-1.9,6.82-3.1,11.71a2.34,2.34,0,0,0,1,2.43l27.85,16.1a2.27,2.27,0,0,0,2.83-.54c2.11-2.68,4.48-5.45,7.13-8.25q2.27-2.4,4.49-4.5c-.66-.71-1.49-1.56-2.47-2.51-.68-.66-1.41-1.34-2.27-2.12s-1.74-1.55-2.71-2.37A46.26,46.26,0,0,0,46,114.84L28.72,104.78c1.89-5.06,3.24-9.4,4.18-12.67A91.93,91.93,0,0,0,36,78.77a73,73,0,0,0,.77-10.28A71.7,71.7,0,0,0,35.08,53a94.57,94.57,0,0,1-9.83,2.89A61.5,61.5,0,0,1,26.33,70.32Z"/><path class="cls-2" d="M50.51,99a70.58,70.58,0,0,1,9.67,7.54c3.8,3.4,5.09,5.09,10.26,10.42,2,2.11,5,5,8.58,8.54a2.34,2.34,0,0,0,2.63.32l28-16.13a2.3,2.3,0,0,0,1-2.59q-2.7-8.25-5.39-16.51c-2.12.51-3.89,1-6.38,1.8-1.08.36-2.21.73-3.41,1.16q1.74,5.34,3.47,10.67l-17.35,9.94c-3.44-4.16-6.53-7.5-8.9-10a90,90,0,0,0-10-9.35A75.73,75.73,0,0,0,54.15,89a71.42,71.42,0,0,0-14.23-6.26,92.65,92.65,0,0,1-2.41,10A61.34,61.34,0,0,1,50.51,99Z"/><path class="cls-1" d="M87.48,92.39a70.4,70.4,0,0,1,11.37-4.6c4.84-1.59,7-1.87,14.15-3.67,2.85-.72,6.85-1.77,11.69-3.17a2.34,2.34,0,0,0,1.59-2.11q0-16.16,0-32.3a2.31,2.31,0,0,0-1.75-2.16l-17-3.58c-.62,2.09-1.09,3.86-1.63,6.42-.23,1.11-.48,2.28-.7,3.54l11,2.33-.06,20c-5.33.89-9.77,1.9-13.07,2.72a90.35,90.35,0,0,0-13.1,4,73.2,73.2,0,0,0-9.28,4.48,70.72,70.72,0,0,0-12.54,9.19,93.37,93.37,0,0,1,7.42,7.06A62,62,0,0,1,87.48,92.39Z"/><path class="cls-2" d="M100,56.81a70.14,70.14,0,0,1,1.69-12.14c1-5,1.86-7,3.89-14.09.81-2.83,1.91-6.82,3.11-11.71a2.34,2.34,0,0,0-1-2.43L79.66.27a2.31,2.31,0,0,0-2.74.44q-5.79,6.47-11.6,12.92c1.5,1.58,2.8,2.88,4.75,4.63.85.75,1.74,1.55,2.71,2.37l7.51-8.34L97.57,22.35c-1.88,5.06-3.23,9.4-4.17,12.67a91.93,91.93,0,0,0-3.1,13.34,73,73,0,0,0-.77,10.28,70.44,70.44,0,0,0,1.69,15.45,94.57,94.57,0,0,1,9.83-2.89A61.5,61.5,0,0,1,100,56.81Z"/><text class="cls-3" transform="translate(162.55 89.66)">blueprint</text></svg>